<svg xmlns="http://www.w3.org/2000/svg" aria-hidden="true" style="position:absolute;width:0;height:0;overflow:hidden">
  <defs>
    <symbol id="play" viewBox="0 0 46 32">
      <path fill="#cd201f" d="M44.8 5.091a5.688 5.688 0 0 0-4.015-4.015C38.155.061 12.683-.437 5.294 1.105A5.688 5.688 0 0 0 1.279 5.12C.092 10.327.002 21.585 1.308 26.909a5.688 5.688 0 0 0 4.015 4.015c5.207 1.199 29.964 1.367 35.491 0a5.688 5.688 0 0 0 4.015-4.015c1.265-5.673 1.356-16.233-.029-21.818z" style="fill:var(--color1, #cd201f)"/>
      <path fill="#fff" d="M30.545 16 18.676 9.193v13.615z" style="fill:var(--color2, #fff)"/>
    </symbol>
    <symbol id="youtube-logo" viewBox="0 0 76 32">
      <path fill="#cd201f" d="M75.702 6.942s-.442-3.106-1.8-4.473C72.181.674 70.251.665 69.366.56 63.031.104 53.529.104 53.529.104h-.02s-9.503 0-15.837.456c-.885.105-2.814.114-4.536 1.909-1.357 1.368-1.799 4.473-1.799 4.473s-.453 3.646-.453 7.293v3.419c0 3.647.453 7.294.453 7.294s.442 3.105 1.799 4.473c1.722 1.795 3.985 1.738 4.992 1.926 3.622.346 15.391.453 15.391.453s9.513-.014 15.847-.47c.885-.105 2.814-.114 4.536-1.909 1.357-1.368 1.8-4.473 1.8-4.473s.453-3.647.453-7.294v-3.419c0-3.647-.453-7.293-.453-7.293z" style="fill:var(--color3, #cd201f)"/>
      <path d="M28.549 25.755h-2.88v-1.668c-1.092 1.252-2.018 1.884-3.027 1.884-.885 0-1.5-.417-1.808-1.172-.187-.459-.319-1.175-.319-2.227V10.444h2.88v12.431c.067.425.249.581.614.581.551 0 1.05-.479 1.66-1.339V10.444h2.88v15.312zm-13.038-4.549c.151 1.516-.319 2.268-1.213 2.268s-1.364-.752-1.212-2.268v-6.064c-.152-1.516.318-2.227 1.212-2.227s1.366.71 1.215 2.227l-.002 6.064zm2.881-5.761c0-1.636-.329-2.865-.91-3.638-.768-1.048-1.971-1.477-3.184-1.477-1.372 0-2.417.429-3.184 1.477-.59.773-.907 2.015-.907 3.651l-.002 5.444c0 1.627.281 2.751.871 3.517.767 1.044 2.009 1.597 3.222 1.597s2.477-.553 3.245-1.597c.581-.766.849-1.89.849-3.517v-5.458zm-11.37 1.971v8.338H3.99v-8.338S.848 7.194.2 5.289h3.183l2.128 7.985 2.117-7.985h3.184l-3.79 12.127z" style="fill:var(--color4, #000)"/>
      <path fill="#fff" d="M66.903 14.682c0-1.417.388-1.804 1.305-1.804.91 0 1.272.422 1.272 1.822v1.655l-2.577.003v-1.677zm5.463 3.947V15.53c0-1.619-.319-2.804-.893-3.57-.769-1.037-1.861-1.585-3.238-1.585-1.402 0-2.494.549-3.288 1.585-.583.766-.923 2.017-.923 3.637v5.306c0 1.61.374 2.736.956 3.494.794 1.035 1.887 1.552 3.322 1.552 1.434 0 2.56-.542 3.319-1.642a3.907 3.907 0 0 0 .642-1.644c.025-.275.097-.901.097-1.785v-.429h-2.88c0 1.101.006 1.756-.02 1.905-.157.734-.55 1.101-1.226 1.101-.942 0-1.341-.704-1.331-2.103v-2.723h5.463zm-13.043 2.729c0 1.516-.357 2.097-1.149 2.097-.452 0-.972-.232-1.431-.692l.003-9.194c.459-.453.977-.691 1.428-.691.791 0 1.149.445 1.149 1.961v6.518zm.32-11.006c-1.01 0-2.013.621-2.9 1.712l.003-6.624h-2.729v20.315h2.729l.004-1.527c.917 1.135 1.917 1.722 2.893 1.722 1.093 0 1.891-.585 2.258-1.712.183-.642.303-1.63.303-3.032v-6.064c0-1.435-.184-2.416-.367-3.026-.366-1.134-1.101-1.766-2.194-1.766zm-7.899 15.403h-2.88v-1.668c-1.093 1.252-2.018 1.884-3.027 1.884-.885 0-1.5-.417-1.808-1.172-.187-.459-.32-1.175-.32-2.227V10.596h2.88v12.279c.067.425.248.581.614.581.551 0 1.05-.479 1.66-1.339V10.596h2.88v15.16z" style="fill:var(--color2, #fff)"/>
      <path fill="#fff" d="M40.828 25.755h-3.032V8.321h-3.183V5.445l9.55-.004v2.88h-3.336v17.434z" style="fill:var(--color2, #fff)"/>
    </symbol>
  </defs>
</svg>
